<svg width="215" height="25" viewBox="0 0 215 25" fill="none" xmlns="http://www.w3.org/2000/svg">
<path d="M22.384 3.52H0.176V24H8.176V18.72H22.384C28.784 18.72 33.904 18.08 33.904 11.52C33.904 4.96 28.784 3.52 22.384 3.52ZM23.632 13.12H8.176V9.92H23.632C24.912 9.92 25.904 10.176 25.904 11.52C25.904 12.864 24.912 13.12 23.632 13.12ZM51.6638 24.48C61.7758 24.48 66.7358 22.144 66.7358 16.192C66.7358 10.272 61.7758 7.84 51.6638 7.84C41.4878 7.84 36.4638 10.272 36.4638 16.192C36.4638 22.144 41.4878 24.48 51.6638 24.48ZM51.6638 19.68C46.8318 19.68 44.3038 18.496 44.3038 16.192C44.3038 13.888 46.8958 12.64 51.6638 12.64C56.4318 12.64 58.8958 13.92 58.8958 16.192C58.8958 18.496 56.3678 19.68 51.6638 19.68ZM85.2198 7.84C80.7398 7.84 77.9558 11.296 76.9638 13.728V8.32H69.2838V24H76.9638V16.352C77.8278 15.776 80.5478 14.24 85.2198 14.24V7.84ZM105.644 8.32H100.076V3.52H92.3955V8.32H86.8275V13.12H92.3955V24H100.076V13.12H105.644V8.32ZM123.017 7.04H127.209V1.92H119.817C114.057 1.92 112.137 3.84 112.137 7.68V9.28H106.921V14.08H112.137V24H119.817V14.08H127.209V9.28H119.817C119.817 7.328 120.457 7.008 123.017 7.04ZM144.164 24.48C154.276 24.48 159.236 22.144 159.236 16.192C159.236 10.272 154.276 7.84 144.164 7.84C133.988 7.84 128.964 10.272 128.964 16.192C128.964 22.144 133.988 24.48 144.164 24.48ZM144.164 19.68C139.332 19.68 136.804 18.496 136.804 16.192C136.804 13.888 139.396 12.64 144.164 12.64C148.932 12.64 151.396 13.92 151.396 16.192C151.396 18.496 148.868 19.68 144.164 19.68ZM162.264 1.92V24H169.944V1.92H162.264ZM181.763 0.0959988H173.635V4.928H181.763V0.0959988ZM173.859 8.32V24H181.539V8.32H173.859ZM199.851 24.48C209.963 24.48 214.923 22.144 214.923 16.192C214.923 10.272 209.963 7.84 199.851 7.84C189.675 7.84 184.651 10.272 184.651 16.192C184.651 22.144 189.675 24.48 199.851 24.48ZM199.851 19.68C195.019 19.68 192.491 18.496 192.491 16.192C192.491 13.888 195.083 12.64 199.851 12.64C204.619 12.64 207.083 13.92 207.083 16.192C207.083 18.496 204.555 19.68 199.851 19.68Z" fill="white"/>
</svg>
